<?xml version="1.0" encoding="UTF-8"?>
<svg width="128px" height="128px" viewBox="0 0 128 128" version="1.1" xmlns="http://www.w3.org/2000/svg" xmlns:xlink="http://www.w3.org/1999/xlink">
    <!-- Generator: Sketch 53.2 (72643) - https://sketchapp.com -->
    <title>icon_gear</title>
    <desc>Created with Sketch.</desc>
    <g id="Page-1" stroke="none" stroke-width="1" fill="none" fill-rule="evenodd">
        <g id="icon_gear" fill="#FFFFFF" fill-rule="nonzero">
            <path d="M120.166667,50.7012987 L115.1,50.7012987 C110.966667,50.7012987 107.5,47.1438961 107.5,42.9215584 C107.5,40.7937662 108.4,38.8654545 110,37.4358442 L113.266667,34.2441558 C116.5,31.0524675 116.5,25.8327273 113.266667,22.641039 L105.833333,15.2935065 C104.366667,13.8306494 102.2,12.9662338 100,12.9662338 C97.8,12.9662338 95.6666667,13.8306494 94.1666667,15.2935065 L91.0333333,18.4187013 C89.5333333,20.081039 87.5333333,20.9787013 85.3666667,20.9787013 C81.1,20.9787013 77.5333333,17.521039 77.5333333,13.4316883 L77.5333333,8.34493506 C77.5333333,3.85662338 73.9,0 69.3666667,0 L59.2333333,0 C54.7,0 51.1,3.82337662 51.1,8.34493506 L51.1,13.3984416 C51.1,17.4877922 47.5333333,20.9454545 43.2666667,20.9454545 C41.1333333,20.9454545 39.1666667,20.0477922 37.7333333,18.4851948 L34.5,15.2935065 C33.0333333,13.7974026 30.8666667,12.9662338 28.6666667,12.9662338 C26.4666667,12.9662338 24.3333333,13.8306494 22.8333333,15.2935065 L15.3333333,22.6077922 C12.1333333,25.7994805 12.1333333,31.0192208 15.3333333,34.1776623 L18.4666667,37.3028571 C20.1333333,38.798961 21.0666667,40.7937662 21.0666667,42.9215584 C21.0666667,47.1771429 17.6,50.7012987 13.4666667,50.7012987 L8.4,50.7012987 C3.83333333,50.7012987 0,54.2587013 0,58.7802597 L0,63.8337662 L0,68.8872727 C0,73.3755844 3.83333333,76.9662338 8.4,76.9662338 L13.4666667,76.9662338 C17.6,76.9662338 21.0666667,80.5236364 21.0666667,84.745974 C21.0666667,86.8737662 20.1333333,88.8685714 18.4666667,90.3646753 L15.3333333,93.4566234 C12.1333333,96.6483117 12.1333333,101.868052 15.3333333,105.026494 L22.7666667,112.407273 C24.2333333,113.903377 26.4,114.734545 28.6,114.734545 C30.8,114.734545 32.9333333,113.87013 34.4333333,112.407273 L37.6666667,109.215584 C39.0666667,107.652987 41.0666667,106.755325 43.2,106.755325 C47.4666667,106.755325 51.0333333,110.212987 51.0333333,114.302338 L51.0333333,119.355844 C51.0333333,123.844156 54.6333333,127.700779 59.2,127.700779 L69.3333333,127.700779 C73.8666667,127.700779 77.4666667,123.877403 77.4666667,119.355844 L77.4666667,114.302338 C77.4666667,110.212987 81.0333333,106.755325 85.3,106.755325 C87.4333333,106.755325 89.4333333,107.686234 90.9666667,109.315325 L94.1,112.440519 C95.6,113.903377 97.7333333,114.767792 99.9333333,114.767792 C102.133333,114.767792 104.266667,113.903377 105.766667,112.440519 L113.2,105.05974 C116.4,101.868052 116.4,96.6483117 113.2,93.4566234 L109.933333,90.2649351 C108.333333,88.8353247 107.433333,86.8737662 107.433333,84.7792208 C107.433333,80.5236364 110.9,76.9994805 115.033333,76.9994805 L120.1,76.9994805 C124.633333,76.9994805 127.866667,73.4420779 127.866667,68.9205195 L127.866667,63.8337662 L127.866667,58.7802597 C127.933333,54.2587013 124.7,50.7012987 120.166667,50.7012987 Z M64.2666667,90.4311688 C49.5,90.4311688 37.6,78.4955844 37.6,63.8337662 C37.6,49.1719481 49.5,37.2363636 64.2666667,37.2363636 C79.0333333,37.2363636 90.9333333,49.1719481 90.9333333,63.8337662 C90.9333333,78.4955844 79.0333333,90.4311688 64.2666667,90.4311688 Z" id="Shape"></path>
        </g>
    </g>
</svg>