<?xml version="1.0" encoding="UTF-8"?>
<svg width="293px" height="293px" viewBox="0 0 293 293" version="1.1" xmlns="http://www.w3.org/2000/svg" xmlns:xlink="http://www.w3.org/1999/xlink">
    <!-- Generator: Sketch 56.3 (81716) - https://sketch.com -->
    <title>Slice 1</title>
    <desc>Created with Sketch.</desc>
    <g id="Page-1" stroke="none" stroke-width="1" fill="none" fill-rule="evenodd">
        <path d="M255.497251,60.8890716 C258.83425,64.2290305 258.83425,69.7031484 255.497251,73.0431073 L188.586707,139.948993 C185.249708,143.278281 185.249708,148.76307 188.586707,152.1137 L255.465267,219.040927 C258.802266,222.380886 258.802266,227.855004 255.465267,231.205633 L231.104115,255.503034 C227.756455,258.832322 222.276528,258.832322 218.928869,255.503034 L152.071631,188.586477 C148.734633,185.246519 143.244045,185.246519 139.907046,188.586477 L72.9965017,255.460351 C69.6595036,258.80031 64.1689155,258.80031 60.8319174,255.460351 L36.5027486,231.130938 C33.1657505,227.790979 33.1657505,222.316861 36.5027486,218.966231 L103.434616,152.071016 C106.771614,148.741728 106.771614,143.25694 103.434616,139.90631 L36.5560553,72.9684117 C33.2083958,69.6284528 33.2083958,64.1436641 36.5560553,60.8037052 L60.9065467,36.4956338 C64.2648676,33.1663457 69.7341329,33.1663457 73.0817924,36.5063046 L139.928369,103.41219 C143.276029,106.76282 148.755955,106.76282 152.092954,103.422861 L219.003498,36.5489878 C222.329835,33.2196997 227.809762,33.2196997 231.168083,36.5489878 L255.497251,60.8890716 Z" id="Path" fill="#FFFFFF" fill-rule="nonzero"></path>
    </g>
</svg>